<svg width="230.4" height="230.4" viewBox="0 0 172.8 172.8" xml:space="preserve" xmlns="http://www.w3.org/2000/svg"><g style="display:inline;fill:none;fill-opacity:1"><path style="display:inline;fill:none;fill-opacity:1;stroke:#00c19e;stroke-width:3;stroke-linecap:round;stroke-dashoffset:5.46;stroke-opacity:1" d="M86.52 4.158c19.507 0 35.32 27.688 35.32 61.842s-15.813 61.842-35.32 61.842" transform="translate(-.06 5.634)"/><path style="display:inline;fill:none;fill-opacity:1;fill-rule:nonzero;stroke:#55afff;stroke-width:3;stroke-linecap:round;stroke-dashoffset:5.46;stroke-opacity:1" d="M-127.963-67.964c19.507 0 35.32 27.688 35.32 61.842 0 34.155-15.813 61.842-35.32 61.842" transform="rotate(240 1.596 2.834)"/><path style="display:inline;fill:none;fill-opacity:1;stroke:#f69041;stroke-width:3;stroke-linecap:round;stroke-dashoffset:5.46;stroke-opacity:1" d="M41.503-217.717c19.507 0 35.32 27.688 35.32 61.842 0 34.155-15.813 61.842-35.32 61.842m0 0c-19.507 0-35.32-27.687-35.32-61.842s15.813-61.842 35.32-61.842" transform="rotate(120 -1.656 2.8)"/><path style="display:inline;fill:none;fill-opacity:1;fill-rule:nonzero;stroke:#55afff;stroke-width:3;stroke-linecap:round;stroke-dashoffset:5.46;stroke-opacity:1" d="M-127.963 55.72c-19.507 0-35.32-27.687-35.32-61.842s15.813-61.842 35.32-61.842" transform="rotate(240 1.596 2.834)"/><path style="display:inline;fill:none;fill-opacity:1;stroke:#00c19e;stroke-width:3;stroke-linecap:round;stroke-dashoffset:5.46;stroke-opacity:1" d="M86.52 127.842c-19.507 0-35.32-27.688-35.32-61.842S67.013 4.158 86.52 4.158" transform="translate(-.06 5.634)"/></g><g style="display:inline;fill:none;stroke:#55afff;stroke-width:2;stroke-linecap:round;stroke-linejoin:round;stroke-opacity:1"><path d="M10 10v.2A3 3 0 0 1 8.9 16H5a3 3 0 0 1-1-5.8V10a3 3 0 0 1 6 0m-3 6v6m6-3v3" style="stroke:#55afff;stroke-opacity:1" transform="translate(14.229 107.137)scale(1.80866)"/><path d="M12 19h8.3a1 1 0 0 0 .7-1.7L18 14h.3a1 1 0 0 0 .7-1.7L16 9h.2a1 1 0 0 0 .8-1.7L13 3l-1.4 1.5" style="stroke:#55afff;stroke-opacity:1" transform="translate(14.229 107.137)scale(1.80866)"/></g><g style="display:inline;fill:none;stroke:#f69041;stroke-width:2;stroke-linecap:round;stroke-linejoin:round;stroke-opacity:1"><path d="M10 12h4m-4-4h4m0 13v-3a2 2 0 0 0-4 0v3" style="stroke:#f69041;stroke-opacity:1" transform="translate(115.026 108.015)scale(1.80866)"/><path d="M6 10H4a2 2 0 0 0-2 2v7a2 2 0 0 0 2 2h16a2 2 0 0 0 2-2V9a2 2 0 0 0-2-2h-2" style="stroke:#f69041;stroke-opacity:1" transform="translate(115.026 108.015)scale(1.80866)"/><path d="M6 21V5a2 2 0 0 1 2-2h8a2 2 0 0 1 2 2v16" style="stroke:#f69041;stroke-opacity:1" transform="translate(115.026 108.015)scale(1.80866)"/></g><g style="display:inline;fill:none;stroke:#00c19e;stroke-width:2;stroke-linecap:round;stroke-linejoin:round;stroke-opacity:1"><path d="M6 16.326A7 7 0 1 1 15.71 8h1.79a4.5 4.5 0 0 1 .5 8.973" style="stroke:#00c19e;stroke-opacity:1" transform="translate(64.692 20.415)scale(1.80866)"/><path d="m13 12-3 5h4l-3 5" style="stroke:#00c19e;stroke-opacity:1" transform="translate(64.692 20.415)scale(1.80866)"/></g></svg>