<svg width="230.4" height="230.4" viewBox="0 0 172.8 172.8" xml:space="preserve" xmlns="http://www.w3.org/2000/svg"><defs><mask maskUnits="userSpaceOnUse" id="c"><path style="fill:#fff;fill-opacity:1" d="M50.2 3.16h72.64v75.713H50.2Z"/><g style="display:inline;fill:none;stroke:#000;stroke-width:2;stroke-linecap:round;stroke-linejoin:round;stroke-opacity:1"><path d="M6 16.326A7 7 0 1 1 15.71 8h1.79a4.5 4.5 0 0 1 .5 8.973" style="stroke:#000;stroke-opacity:1" transform="translate(64.752 14.781)scale(1.80866)"/><path d="m13 12-3 5h4l-3 5" style="stroke:#000;stroke-opacity:1" transform="translate(64.752 14.781)scale(1.80866)"/></g></mask><mask maskUnits="userSpaceOnUse" id="a"><path style="fill:#fff;fill-opacity:1" d="M85.46 76.873h86.188v81.502H85.46Z"/><g style="display:inline;fill:none;stroke:#000;stroke-width:2;stroke-linecap:round;stroke-linejoin:round;stroke-opacity:1"><path d="M10 12h4m-4-4h4m0 13v-3a2 2 0 0 0-4 0v3" style="stroke:#000;stroke-opacity:1" transform="translate(115.086 102.381)scale(1.80866)"/><path d="M6 10H4a2 2 0 0 0-2 2v7a2 2 0 0 0 2 2h16a2 2 0 0 0 2-2V9a2 2 0 0 0-2-2h-2" style="stroke:#000;stroke-opacity:1" transform="translate(115.086 102.381)scale(1.80866)"/><path d="M6 21V5a2 2 0 0 1 2-2h8a2 2 0 0 1 2 2v16" style="stroke:#000;stroke-opacity:1" transform="translate(115.086 102.381)scale(1.80866)"/></g></mask><mask maskUnits="userSpaceOnUse" id="b"><path style="fill:#fff;fill-opacity:1" d="M1.272 76.825H87.46v81.55H1.272Z"/><g style="display:inline;fill:none;stroke:#000;stroke-width:2;stroke-linecap:round;stroke-linejoin:round;stroke-opacity:1"><path d="M10 10v.2A3 3 0 0 1 8.9 16H5a3 3 0 0 1-1-5.8V10a3 3 0 0 1 6 0m-3 6v6m6-3v3" style="stroke:#000;stroke-opacity:1" transform="translate(14.289 101.504)scale(1.80866)"/><path d="M12 19h8.3a1 1 0 0 0 .7-1.7L18 14h.3a1 1 0 0 0 .7-1.7L16 9h.2a1 1 0 0 0 .8-1.7L13 3l-1.4 1.5" style="stroke:#000;stroke-opacity:1" transform="translate(14.289 101.504)scale(1.80866)"/></g></mask></defs><g style="display:inline;fill:none;fill-opacity:1"><path d="M121.19 77.873c-1.589 14.298-5.99 26.837-12.156 35.777-4.924 8.436-12.673 16.886-22.574 24.2a108 108 0 0 0 10.12 6.62c29.579 17.076 61.463 17.225 71.216.332 9.754-16.894-6.317-44.432-35.896-61.51a108 108 0 0 0-10.71-5.42" style="display:inline;fill:#f69041;fill-opacity:1;stroke:none;stroke-width:3;stroke-linecap:round;stroke-dashoffset:5.46;stroke-opacity:1" mask="url(#a)" transform="translate(-.06 5.633)"/><path d="M63.22 112.48c-5.761-8.86-9.86-20.95-11.376-34.655a108 108 0 0 0-10.824 5.468C11.442 100.37-4.63 127.908 5.124 144.802s41.638 16.744 71.216-.333a108 108 0 0 0 10.12-6.62c-10.36-7.651-18.363-16.546-23.24-25.37" style="display:inline;fill:#55afff;fill-opacity:1;stroke:none;stroke-width:3;stroke-linecap:round;stroke-dashoffset:5.46" mask="url(#b)" transform="translate(-.06 5.633)"/><path d="M86.52 4.16C67.013 4.16 51.2 31.845 51.2 66c0 4.044.22 7.997.644 11.825 11.276-4.911 22.459-7.393 32.22-7.439a57 57 0 0 1 2.396.038q1.182-.044 2.398-.038c9.793.046 21.017 2.543 32.332 7.487.426-3.843.65-7.811.65-11.873 0-34.154-15.814-61.84-35.32-61.84" style="display:inline;fill:#00c19e;fill-opacity:1;stroke:none;stroke-width:3;stroke-linecap:round;stroke-dashoffset:5.46;stroke-opacity:1" mask="url(#c)" transform="translate(-.06 5.633)"/><path d="M63.22 112.48c-5.936-10.738-7.242-21.37-2.536-29.521 4.57-7.917 14-12.091 25.776-12.535a57 57 0 0 0-2.397-.038c-9.76.046-20.943 2.528-32.22 7.439C53.36 91.529 57.46 103.62 63.22 112.48" style="display:inline;stroke:none;stroke-width:3;stroke-linecap:round;stroke-dashoffset:5.46;fill:#f69041;fill-opacity:1;stroke-opacity:1" transform="translate(-.06 5.633)"/><path d="M109.034 113.65c-6.112 8.864-13.958 14.192-22.514 14.192-8.927 0-17.082-5.799-23.3-15.362 4.877 8.823 12.88 17.718 23.24 25.37 9.901-7.314 17.65-15.764 22.574-24.2" style="display:inline;stroke:none;stroke-width:3;stroke-linecap:round;stroke-dashoffset:5.46;stroke-opacity:1;fill:#00c19e;fill-opacity:1" transform="translate(-.06 5.633)"/><path d="M121.19 77.873c-11.315-4.944-22.54-7.441-32.332-7.487a57 57 0 0 0-2.398.038c11.775.444 21.206 4.618 25.776 12.535 4.878 8.448 3.297 19.558-3.202 30.691 6.166-8.94 10.567-21.479 12.156-35.777" style="display:inline;stroke:none;stroke-width:3;stroke-linecap:round;stroke-dashoffset:5.46;fill:#55afff;fill-opacity:1;stroke-opacity:1" transform="translate(-.06 5.633)"/><path d="M109.034 113.65c6.499-11.133 8.08-22.243 3.202-30.691-4.57-7.917-14-12.091-25.776-12.535-11.776.444-21.205 4.618-25.776 12.535-4.706 8.152-3.4 18.783 2.536 29.52 6.218 9.564 14.373 15.363 23.3 15.363 8.556 0 16.402-5.328 22.514-14.192" style="display:inline;fill:none;fill-opacity:1;stroke:none;stroke-width:3;stroke-linecap:round;stroke-dashoffset:5.46" transform="translate(-.06 5.633)"/></g></svg>